<?xml version="1.0" standalone="no"?>
<svg version="1.0" xmlns="http://www.w3.org/2000/svg"
     width="271.813725pt" height="369.111953pt" viewBox="0 0 271.813725 369.111953"
     preserveAspectRatio="xMidYMid meet">
    <metadata>
        Created by potrace 1.12, written by Peter Selinger 2001-2015
    </metadata>
    <g transform="translate(-377.186275,697.111953) scale(0.100000,-0.100000)"
       fill="#000000" stroke="none">
        <path d="M5626 6932 c-144 -209 -68 -496 162 -609 51 -25 67 -28 162 -28 98 0
110 2 170 32 36 18 78 45 93 61 28 29 28 31 12 56 -10 14 -21 26 -26 26 -5 0
-28 -15 -52 -33 -166 -127 -414 -56 -487 139 -37 100 -19 254 36 316 17 18 17
20 -12 49 l-31 30 -27 -39z"/>
        <path d="M5014 6885 c-186 -93 -322 -265 -384 -485 -26 -92 -40 -310 -20 -310
21 0 123 58 182 105 147 115 261 315 297 519 13 72 14 206 2 206 -4 0 -39 -16
-77 -35z m-4 -127 c0 -42 -33 -153 -66 -226 -46 -101 -112 -190 -186 -252 -74
-62 -77 -58 -53 63 19 97 70 211 128 286 38 49 151 150 170 151 4 0 7 -10 7
-22z"/>
        <path d="M4324 6859 c-79 -124 -119 -297 -111 -474 7 -162 44 -274 140 -428
l24 -39 41 64 c122 188 146 471 58 702 -26 70 -70 151 -105 195 l-19 24 -28
-44z m69 -203 c37 -92 50 -182 45 -310 -5 -102 -32 -223 -57 -248 -11 -13 -62
131 -78 222 -13 69 -13 103 -5 180 12 103 48 234 61 225 5 -2 20 -34 34 -69z"/>
        <path d="M3847 6363 c-35 -62 -43 -342 -13 -458 24 -90 63 -177 114 -251 49
-73 180 -200 192 -188 18 18 42 132 47 229 9 158 -30 314 -109 439 -54 85
-219 249 -231 229z m114 -215 c50 -63 113 -192 128 -266 13 -64 15 -262 2
-262 -15 0 -97 115 -126 176 -42 90 -65 196 -65 306 0 54 4 98 9 98 5 0 28
-24 52 -52z"/>
        <path d="M4880 6070 c-175 -18 -346 -104 -485 -244 -64 -65 -155 -196 -155
-223 0 -19 121 -26 216 -13 156 20 290 78 415 178 101 80 254 271 230 287 -8
4 -33 8 -131 19 -14 1 -54 -1 -90 -4z m38 -139 c-58 -67 -158 -145 -229 -181
-98 -50 -299 -93 -299 -65 1 15 108 123 165 166 99 75 241 127 348 128 l59 1
-44 -49z"/>
        <path d="M5287 6032 l-26 -27 39 -50 c22 -28 40 -54 40 -59 0 -5 -21 -42 -46
-84 l-45 -75 28 -23 c15 -13 31 -23 35 -24 4 0 26 34 49 75 24 41 47 75 53 75
5 0 17 -6 25 -14 9 -8 40 -26 69 -41 28 -14 52 -29 52 -33 0 -4 -6 -27 -14
-52 -29 -98 -29 -98 4 -115 17 -9 34 -14 38 -11 5 3 17 39 27 81 15 60 22 74
35 69 8 -3 48 -11 88 -17 l72 -11 0 -83 0 -83 40 0 40 0 0 83 0 83 68 11 c37
7 75 13 85 15 15 2 23 -11 41 -67 21 -66 24 -70 51 -68 47 4 50 16 26 95 -17
58 -19 75 -9 81 117 70 132 77 140 65 5 -7 25 -41 46 -75 20 -35 39 -63 42
-63 3 0 18 10 34 23 l29 23 -47 81 -47 81 41 58 40 58 -27 23 c-16 12 -31 22
-35 23 -3 0 -16 -15 -28 -34 -55 -90 -203 -191 -330 -227 -68 -19 -253 -16
-325 5 -115 34 -209 91 -289 177 -41 44 -76 79 -78 79 -2 0 -16 -12 -31 -28z"/>
        <path d="M3940 5340 l0 -40 1275 0 1275 0 0 40 0 40 -1275 0 -1275 0 0 -40z"/>
        <path d="M4063 5216 c-99 -31 -198 -117 -246 -213 -156 -308 121 -663 443
-567 63 19 92 35 143 83 62 57 90 122 95 219 l5 82 561 0 561 0 1 -74 c0 -62
5 -84 33 -140 35 -72 78 -113 161 -154 48 -24 67 -27 150 -27 82 0 103 4 152
27 80 37 152 107 191 187 30 62 32 72 32 176 0 105 -2 114 -33 178 -43 86
-114 157 -199 199 l-68 33 -970 2 c-782 1 -978 -1 -1012 -11z m2008 -97 c72
-34 134 -96 168 -168 34 -74 36 -191 4 -262 -101 -224 -399 -252 -506 -48 -25
47 -28 63 -25 125 2 55 9 79 28 107 36 52 95 87 148 87 90 0 151 -54 160 -141
4 -43 1 -51 -26 -79 -33 -33 -72 -39 -92 -15 -10 13 -10 19 4 33 20 23 20 46
0 66 -40 40 -104 -6 -104 -74 0 -110 154 -163 242 -83 61 55 78 182 35 258
-50 88 -158 137 -260 115 -64 -13 -140 -60 -164 -101 l-17 -29 -596 0 -597 0
-30 38 c-17 20 -54 51 -84 67 -46 25 -65 30 -124 30 -77 -1 -128 -21 -179 -71
-125 -124 -57 -344 106 -344 107 0 180 119 113 185 -32 33 -70 32 -92 -1 -16
-26 -16 -27 5 -44 40 -33 1 -71 -51 -51 -37 14 -57 49 -57 102 0 140 187 189
287 76 41 -47 57 -98 50 -162 -14 -136 -120 -229 -262 -230 -83 0 -143 25
-204 86 -67 67 -86 118 -86 229 0 80 4 102 23 138 52 97 138 164 232 180 23 4
459 7 969 7 l926 0 56 -26z"/>
        <path d="M4610 4580 l0 -140 40 -25 c22 -14 44 -25 50 -25 6 0 10 60 10 165
l0 165 -50 0 -50 0 0 -140z"/>
        <path d="M4813 4704 c-9 -23 4 -355 14 -364 4 -5 25 -12 46 -15 l37 -7 0 201
0 201 -45 0 c-33 0 -47 -5 -52 -16z"/>
        <path d="M5020 4505 l0 -215 45 0 45 0 0 215 0 215 -45 0 -45 0 0 -215z"/>
        <path d="M5227 4713 c-8 -7 -10 -407 -3 -414 3 -2 25 -3 50 -1 l46 4 0 209 0
209 -43 0 c-24 0 -47 -3 -50 -7z"/>
        <path d="M5430 4524 c0 -183 1 -196 18 -189 9 3 29 9 45 12 l27 6 0 183 0 184
-45 0 -45 0 0 -196z"/>
        <path d="M4436 4419 c-14 -11 -26 -24 -26 -29 0 -4 28 -31 63 -58 252 -201
635 -271 965 -176 101 29 240 94 271 128 l22 24 -27 21 c-29 23 -49 27 -59 11
-12 -20 -144 -80 -232 -106 -108 -32 -327 -44 -451 -24 -162 26 -324 94 -430
179 -34 28 -64 51 -66 51 -2 0 -15 -9 -30 -21z"/>
        <path d="M4420 4143 c0 -59 -3 -186 -7 -280 l-6 -173 51 0 52 0 0 250 0 249
-45 31 -45 31 0 -108z"/>
        <path d="M5673 4147 l-43 -21 0 -218 0 -218 45 0 45 0 0 240 c0 132 -1 240 -2
239 -2 0 -22 -10 -45 -22z"/>
        <path d="M4619 3938 c-1 -106 -3 -205 -5 -220 -3 -27 -1 -28 47 -28 l49 0 0
203 0 203 -37 14 c-21 8 -41 16 -45 18 -5 2 -9 -83 -9 -190z"/>
        <path d="M5463 4068 l-32 -11 -3 -183 -3 -184 48 0 47 0 0 195 c0 211 3 202
-57 183z"/>
        <path d="M4820 3876 l0 -186 45 0 45 0 0 175 0 175 -27 6 c-16 3 -36 8 -45 11
-17 4 -18 -9 -18 -181z"/>
        <path d="M5233 4023 c-10 -3 -13 -47 -13 -169 l0 -164 50 0 50 0 0 170 0 170
-37 -1 c-21 0 -44 -3 -50 -6z"/>
        <path d="M5020 3855 l0 -165 45 0 45 0 0 165 0 165 -45 0 -45 0 0 -165z"/>
        <path d="M3880 3560 l0 -39 393 -3 c215 -2 760 -2 1210 0 l817 3 0 39 0 40
-1210 0 -1210 0 0 -40z"/>
        <path d="M3880 3320 l0 -40 1210 0 1210 0 0 40 0 40 -1210 0 -1210 0 0 -40z"/>
    </g>
</svg>
